<svg width="35" height="35" viewBox="0 0 35 35" fill="none" xmlns="http://www.w3.org/2000/svg">
<path d="M17.4993 2.91406C9.44935 2.91406 2.91602 9.4474 2.91602 17.4974C2.91602 25.5474 9.44935 32.0807 17.4993 32.0807C25.5493 32.0807 32.0827 25.5474 32.0827 17.4974C32.0827 9.4474 25.5493 2.91406 17.4993 2.91406ZM24.266 12.8307C24.0473 15.1349 23.0993 20.7349 22.6181 23.3161C22.4139 24.4099 22.0056 24.7745 21.6264 24.8182C20.7806 24.8911 20.1389 24.2641 19.3223 23.7245C18.0389 22.8786 17.3098 22.3536 16.0702 21.537C14.6264 20.5891 15.5598 20.0641 16.391 19.2182C16.6098 18.9995 20.3431 15.6016 20.416 15.2953C20.4261 15.2489 20.4248 15.2008 20.4121 15.155C20.3994 15.1093 20.3757 15.0673 20.3431 15.0328C20.2556 14.9599 20.1389 14.9891 20.0368 15.0036C19.9056 15.0328 17.8639 16.3891 13.8827 19.0724C13.2994 19.4661 12.7743 19.6703 12.3077 19.6557C11.7827 19.6411 10.791 19.3641 10.0473 19.1161C9.12852 18.8245 8.41393 18.6641 8.47227 18.1536C8.50143 17.8911 8.86602 17.6286 9.55143 17.3516C13.8098 15.4995 16.6389 14.2745 18.0535 13.6911C22.1077 11.9995 22.9389 11.7078 23.4931 11.7078C23.6098 11.7078 23.8868 11.737 24.0618 11.8828C24.2077 11.9995 24.2514 12.1599 24.266 12.2766C24.2514 12.3641 24.2806 12.6266 24.266 12.8307Z" fill="#B89E89"/>
</svg>
