<svg width="150" height="150" viewBox="0 0 150 150" fill="none" xmlns="http://www.w3.org/2000/svg">
<path fill-rule="evenodd" clip-rule="evenodd" d="M54.6875 12.5813V137.5H93.75C111.425 137.5 120.269 137.5 125.756 132.006C131.25 126.519 131.25 117.675 131.25 100V50C131.25 32.325 131.25 23.4812 125.756 17.9937C120.269 12.5 111.425 12.5 93.75 12.5H56.25L54.6875 12.5813ZM67.1875 40.625C67.1875 39.3818 67.6814 38.1895 68.5604 37.3104C69.4395 36.4314 70.6318 35.9375 71.875 35.9375H103.125C104.368 35.9375 105.561 36.4314 106.44 37.3104C107.319 38.1895 107.813 39.3818 107.813 40.625C107.813 41.8682 107.319 43.0605 106.44 43.9396C105.561 44.8186 104.368 45.3125 103.125 45.3125H71.875C70.6318 45.3125 69.4395 44.8186 68.5604 43.9396C67.6814 43.0605 67.1875 41.8682 67.1875 40.625ZM67.1875 62.5C67.1875 61.2568 67.6814 60.0645 68.5604 59.1854C69.4395 58.3064 70.6318 57.8125 71.875 57.8125H103.125C104.368 57.8125 105.561 58.3064 106.44 59.1854C107.319 60.0645 107.813 61.2568 107.813 62.5C107.813 63.7432 107.319 64.9355 106.44 65.8146C105.561 66.6936 104.368 67.1875 103.125 67.1875H71.875C70.6318 67.1875 69.4395 66.6936 68.5604 65.8146C67.6814 64.9355 67.1875 63.7432 67.1875 62.5ZM18.75 45.3125C18.8 30.7125 19.2563 22.975 24.2438 17.9937C28.4625 13.775 34.6563 12.7937 45.3125 12.5687V137.431C34.6563 137.206 28.4625 136.225 24.2438 132.006C19.2563 127.025 18.8 119.287 18.7563 104.687H25C26.2432 104.687 27.4355 104.194 28.3146 103.315C29.1936 102.435 29.6875 101.243 29.6875 100C29.6875 98.7568 29.1936 97.5645 28.3146 96.6854C27.4355 95.8064 26.2432 95.3125 25 95.3125H18.75V79.6875H25C26.2432 79.6875 27.4355 79.1936 28.3146 78.3146C29.1936 77.4355 29.6875 76.2432 29.6875 75C29.6875 73.7568 29.1936 72.5645 28.3146 71.6854C27.4355 70.8064 26.2432 70.3125 25 70.3125H18.75V54.6875H25C26.2432 54.6875 27.4355 54.1936 28.3146 53.3146C29.1936 52.4355 29.6875 51.2432 29.6875 50C29.6875 48.7568 29.1936 47.5645 28.3146 46.6854C27.4355 45.8064 26.2432 45.3125 25 45.3125H18.75ZM18.75 45.3125H12.5C11.2568 45.3125 10.0645 45.8064 9.18544 46.6854C8.30636 47.5645 7.8125 48.7568 7.8125 50C7.8125 51.2432 8.30636 52.4355 9.18544 53.3146C10.0645 54.1936 11.2568 54.6875 12.5 54.6875H18.75V50V45.3125ZM18.75 79.6875H12.5C11.2568 79.6875 10.0645 79.1936 9.18544 78.3146C8.30636 77.4355 7.8125 76.2432 7.8125 75C7.8125 73.7568 8.30636 72.5645 9.18544 71.6854C10.0645 70.8064 11.2568 70.3125 12.5 70.3125H18.75V79.6875ZM18.75 95.3125H12.5C11.2568 95.3125 10.0645 95.8064 9.18544 96.6854C8.30636 97.5645 7.8125 98.7568 7.8125 100C7.8125 101.243 8.30636 102.435 9.18544 103.315C10.0645 104.194 11.2568 104.687 12.5 104.687H18.7563L18.75 100V95.3125Z" fill="#B89E89"/>
</svg>
