<svg width="150" height="150" viewBox="0 0 150 150" fill="none" xmlns="http://www.w3.org/2000/svg">
<path d="M118.22 0C111.196 0 104.84 9.12997 104.84 21.3365C104.84 33.5737 111.196 42.7037 118.22 42.7037C125.243 42.7037 131.599 33.5737 131.599 21.3365C131.599 9.12997 125.243 0 118.22 0ZM31.809 0.0383621C24.7729 0.0383621 18.4009 9.16833 18.4009 21.3365C18.4009 33.5737 24.7729 42.7037 31.809 42.7037C38.8643 42.7037 45.2203 33.5737 45.2203 21.3365C45.2203 9.16833 38.8643 0.0383621 31.809 0.0383621ZM20.0217 44.5067C12.0767 47.5756 3.30533 57.3577 1.14427 68.2523L0.000179259 98.8261C-0.031601 103.276 4.16339 109.874 11.6953 107.688C28.2179 102.931 36.8303 97.7137 49.32 91.7677L47.7627 82.7528C36.7668 87.4329 24.1691 93.4939 11.4411 94.99L11.7907 64.3394L17.5111 64.4161L17.2886 86.704C25.8026 84.8243 37.4659 79.799 46.5869 75.9629L44.5847 64.2243L50.178 62.8433C52.4662 76.193 54.2777 86.704 56.5659 100.399C53.6103 100.092 51.2903 99.8619 48.3983 99.6317C42.8686 102.355 37.8791 104.964 32.2857 107.496C39.3092 109.145 46.1419 110.565 51.6717 110.718C56.407 110.833 59.9664 109.836 61.7143 108.11C63.4622 106.383 64.352 103.775 63.3351 97.6753C61.2058 84.9778 59.6168 72.6254 56.693 63.1119C53.7692 53.5216 49.8602 47.192 42.7097 44.6218C39.6905 47.7674 35.9405 49.6087 31.809 49.6087C27.2327 49.532 24.5504 47.8825 20.0217 44.5067ZM129.978 44.5067C125.465 47.8825 122.796 49.532 118.22 49.6087C114.12 49.6087 110.37 47.7674 107.351 44.6218C100.2 47.192 96.2912 53.5216 93.3674 63.1119C90.4436 72.6254 88.8546 84.9778 86.7253 97.6753C85.7084 103.775 86.5982 106.383 88.3461 108.11C90.094 109.836 93.6534 110.833 98.3887 110.718C103.918 110.565 110.751 109.145 117.775 107.496C112.181 104.964 107.192 102.355 101.662 99.6317C98.77 99.8619 96.4501 100.092 93.4945 100.399C95.7827 86.704 97.5942 76.193 99.8823 62.8433L105.476 64.2243L103.474 75.9629C112.594 79.8373 124.226 84.8627 132.711 86.7424L132.489 64.4545L138.209 64.3778L138.559 95.0284C125.847 93.5323 113.294 87.4712 102.298 82.7912L100.74 91.806C113.23 97.752 121.811 102.969 138.305 107.726C145.837 109.913 150.032 103.314 150 98.8645L148.856 68.2906C146.695 57.3577 137.923 47.5756 129.978 44.5067ZM21.2771 111.792C17.9242 112.981 13.9835 114.401 10.2652 114.976L11.0597 150H47.5085L48.303 117.393C39.913 116.626 30.1882 113.979 21.2771 111.792ZM128.739 111.792C119.84 113.979 110.147 116.626 101.757 117.393L102.552 150H138.94L139.735 114.976C136.017 114.401 132.076 112.981 128.739 111.792Z" fill="#B89E89"/>
</svg>
