<svg width="145" height="145" viewBox="0 0 145 145" fill="none" xmlns="http://www.w3.org/2000/svg">
<g clip-path="url(#clip0_44_471)">
<path d="M132.296 12.7001C114.582 -4.99443 86.5106 -5.6458 60.8496 19.9869C38.587 42.224 43.5798 37.2397 36.5649 44.2461C19.4424 61.3487 16.6302 86.9616 18.5418 104.05L69.0766 53.5691C70.8495 51.7991 73.7211 51.7991 75.4912 53.5691C77.2612 55.3392 77.2612 58.208 75.4912 59.978L1.99429 133.398C-0.662158 136.052 -0.662158 140.357 1.99429 143.01C4.65073 145.664 8.96108 145.664 11.6175 143.01L30.3373 124.31C45.1488 128.76 79.0142 129.456 100.24 108.751H72.4326L114.225 94.8347C128.382 80.6944 124.528 84.5884 127.34 81.5638H99.6484L136.901 69.1595C149.77 48.0722 146.618 27.0075 132.296 12.7001Z" fill="#B89E89"/>
</g>
<defs>
<clipPath id="clip0_44_471">
<rect width="145" height="145" fill="white"/>
</clipPath>
</defs>
</svg>
