<svg width="150" height="150" viewBox="0 0 150 150" fill="none" xmlns="http://www.w3.org/2000/svg">
<path d="M56.25 31.25C62.8804 31.25 69.2393 33.8839 73.9277 38.5723C78.6161 43.2607 81.25 49.6196 81.25 56.25C81.25 62.8804 78.6161 69.2393 73.9277 73.9277C69.2393 78.6161 62.8804 81.25 56.25 81.25C49.6196 81.25 43.2607 78.6161 38.5723 73.9277C33.8839 69.2393 31.25 62.8804 31.25 56.25C31.25 49.6196 33.8839 43.2607 38.5723 38.5723C43.2607 33.8839 49.6196 31.25 56.25 31.25ZM56.25 93.75C72.9375 93.75 106.25 102.125 106.25 118.75V131.25H6.25V118.75C6.25 102.125 39.5625 93.75 56.25 93.75ZM104.75 33.5C117.375 47.25 117.375 66.3125 104.75 78.9375L94.25 68.375C99.5 61 99.5 51.4375 94.25 44.0625L104.75 33.5ZM125.438 12.5C150 37.8125 149.812 75.6875 125.438 100L115.25 89.8125C132.562 69.9375 132.562 41.5625 115.25 22.6875L125.438 12.5Z" fill="#B89E89"/>
</svg>
