<svg width="35" height="35" viewBox="0 0 35 35" fill="none" xmlns="http://www.w3.org/2000/svg">
<path d="M17.5013 2.91406C25.5557 2.91406 32.0847 9.44302 32.0847 17.4974C32.0847 25.5518 25.5557 32.0807 17.5013 32.0807C14.9241 32.0849 12.3923 31.4029 10.1659 30.1047L2.92382 32.0807L4.89549 24.8357C3.59625 22.6087 2.91368 20.0757 2.91799 17.4974C2.91799 9.44302 9.44695 2.91406 17.5013 2.91406ZM12.5313 10.6432L12.2397 10.6549C12.0508 10.6664 11.8663 10.716 11.6972 10.8007C11.539 10.8903 11.3945 11.0023 11.2684 11.1332C11.0934 11.298 10.9942 11.4409 10.8878 11.5795C10.3484 12.2808 10.0579 13.1418 10.0624 14.0266C10.0653 14.7411 10.2519 15.4368 10.5436 16.0872C11.1401 17.4026 12.1215 18.7953 13.4165 20.0859C13.7286 20.3966 14.0349 20.7086 14.3644 20.9989C15.9736 22.4156 17.8911 23.4372 19.9644 23.9826L20.7928 24.1095C21.0626 24.1241 21.3324 24.1036 21.6036 24.0905C22.0283 24.0686 22.4431 23.9536 22.8184 23.7536C23.0094 23.6553 23.1958 23.5482 23.3769 23.4328C23.3769 23.4328 23.4397 23.392 23.5592 23.3016C23.7561 23.1557 23.8772 23.0522 24.0405 22.8816C24.1615 22.7561 24.2665 22.6089 24.3467 22.4411C24.4605 22.2034 24.5742 21.7499 24.6209 21.3722C24.6559 21.0834 24.6457 20.9259 24.6413 20.8282C24.6355 20.6722 24.5057 20.5103 24.3642 20.4418L23.5155 20.0611C23.5155 20.0611 22.2467 19.5084 21.4709 19.1555C21.3897 19.1201 21.3027 19.0998 21.2142 19.0957C21.1145 19.0855 21.0136 19.0967 20.9186 19.1287C20.8235 19.1606 20.7363 19.2125 20.663 19.2809C20.6557 19.278 20.558 19.3611 19.5036 20.6386C19.4431 20.72 19.3597 20.7814 19.2642 20.8152C19.1686 20.8489 19.0651 20.8535 18.9669 20.8282C18.8719 20.8028 18.7789 20.7706 18.6884 20.732C18.5076 20.6561 18.4449 20.627 18.3209 20.5745C17.4839 20.2092 16.709 19.7157 16.024 19.1118C15.8403 18.9514 15.6697 18.7764 15.4947 18.6072C14.9209 18.0577 14.4209 17.4362 14.0072 16.758L13.9211 16.6195C13.8593 16.5264 13.8093 16.426 13.7724 16.3205C13.7169 16.1061 13.8613 15.9341 13.8613 15.9341C13.8613 15.9341 14.2157 15.5461 14.3805 15.3361C14.5409 15.132 14.6765 14.9336 14.764 14.7922C14.9361 14.5151 14.9901 14.2307 14.8997 14.0105C14.4913 13.013 14.0684 12.0199 13.6338 11.0341C13.5478 10.8386 13.2926 10.6986 13.0607 10.6709C12.9819 10.6622 12.9032 10.6534 12.8244 10.6476C12.6286 10.6379 12.4324 10.6398 12.2367 10.6534L12.5313 10.6432Z" fill="#B89E89"/>
</svg>
